Release Title: Elevator (2011)


General
Format                         : Matroska
Format version                 : Version 2
File size                      : 691 MiB
Duration                       : 1h 24mn
Overall bit rate               : 1 139 Kbps
Movie name                     : Elevator 2011 BRRip 720p x264 6Ch-AC3 - ViZNU [P2PDL]
Source                         : 720p.BluRay.x264-SONiDO(Thanks)

Video
ID                             : 1
Format                         : AVC
Format/Info                    : Advanced Video Codec
Format profile                 : High 10@L4.1
Format settings, CABAC         : Yes
Format settings, ReFrames      : 5 frames
Muxing mode                    : Header stripping
Codec ID                       : V_MPEG4/ISO/AVC
Duration                       : 1h 24mn
Bit rate                       : 754 Kbps
Width                          : 1 280 pixels
Height                         : 544 pixels
Display aspect ratio           : 2.35:1
Frame rate mode                : Constant
Frame rate                     : 25.000 fps
Color space                    : YUV
Chroma subsampling             : 4:2:0
Stream size                    : 444 MiB (64%)
Writing library                : x264 core 125 r2208 d9d2288
Default                        : Yes
Forced                         : No

Audio
ID                             : 2
Format                         : AC-3
Format/Info                    : Audio Coding 3
Mode extension                 : CM (complete main)
Format settings, Endianness    : Big
Muxing mode                    : Header stripping
Codec ID                       : A_AC3
Duration                       : 1h 24mn
Bit rate mode                  : Constant
Bit rate                       : 384 Kbps
Channel(s)                     : 6 channels
Channel positions              : Front: L C R, Side: L R, LFE
Sampling rate                  : 48.0 KHz
Bit depth                      : 16 bits
Stream size                    : 233 MiB (34%)
Language                       : English
Default                        : Yes
Forced                         : No




Screens:

 
http://www.shotpix.com/images/07687287051585988352.png 
http://www.shotpix.com/images/46238518388465678847.png 
http://www.shotpix.com/images/11422610093163202219.png 
http://www.shotpix.com/images/84503299643005431563.png 
http://www.shotpix.com/images/27117231120210192191.png 
http://www.shotpix.com/images/42472907549034258193.png

Enjoy
